<svg xmlns="http://www.w3.org/2000/svg" width="29" height="30" fill="none"><path fill="#3E485D" d="M0 .5h29v29H0z"/><g clip-path="url(#a)"><path fill="url(#b)" d="M9.165 18.552 2.65 18.55s-.524-5.256.177-7.65c.787-2.686 1.525-3.448 3.14-5.101C7.17 4.565 9.558 3.232 9.558 3.232l3.83 5.273s-1.993 1.227-2.622 1.871c-.628.644-1.333 2.102-1.601 3.211-.331 1.37 0 4.965 0 4.965Z"/><ellipse cx="10.794" cy="6.298" fill="#9D5EF9" rx="3.474" ry="3.414" transform="rotate(-46.236 10.794 6.298)"/><path fill="url(#c)" d="m14.13 8.57 3.736-5.338s4.607 2.585 6.166 4.532c1.75 2.185 1.95 3.227 2.38 5.497.32 1.695.041 4.416.041 4.416l-6.515.113s.137-2.335-.03-3.22c-.167-.884-.957-2.297-1.712-3.153-.933-1.056-4.067-2.847-4.067-2.847Z"/><ellipse cx="23.234" cy="16.931" fill="#56F1B0" rx="3.474" ry="3.414" transform="rotate(78.753 23.234 16.931)"/><path fill="url(#d)" d="m19.71 17.648 2.546 5.998s-4.634 2.537-7.111 2.828c-2.78.326-3.77-.056-5.923-.895-1.607-.627-3.767-2.305-3.767-2.305l3.357-5.586s1.908 1.355 2.746 1.681c.839.327 2.456.406 3.582.22 1.39-.232 4.57-1.94 4.57-1.94Z"/><ellipse cx="7.794" cy="20.938" fill="#33E3FB" rx="3.474" ry="3.414" transform="rotate(-159.247 7.794 20.938)"/></g><defs><linearGradient id="b" x1="11.505" x2="5.741" y1="6.052" y2="18.468" gradientUnits="userSpaceOnUse"><stop stop-color="#9747FF"/><stop offset="1" stop-color="#3E485D" stop-opacity=".7"/></linearGradient><linearGradient id="c" x1="23.028" x2="15.478" y1="17.654" y2="6.516" gradientUnits="userSpaceOnUse"><stop stop-color="#56F1B0"/><stop offset=".949" stop-color="#3E485D" stop-opacity=".7"/></linearGradient><linearGradient id="d" x1="7.29" x2="20.971" y1="20.381" y2="20.832" gradientUnits="userSpaceOnUse"><stop stop-color="#33E3FB"/><stop offset="1" stop-color="#3E485D" stop-opacity=".7"/></linearGradient><clipPath id="a"><path fill="#fff" d="M2.003 2.497h25v25h-25z"/></clipPath></defs></svg>