<svg width="24" height="24" viewBox="0 0 24 24" fill="none" xmlns="http://www.w3.org/2000/svg">
<path d="M21.1406 4.10156C22 4.96094 22 6.32812 21.1406 7.1875L19.9688 8.35938L16.1406 4.53125L17.3125 3.35938C18.1719 2.5 19.5391 2.5 20.3984 3.35938L21.1406 4.10156ZM8.71875 11.9531L15.2422 5.42969L19.0703 9.25781L12.5469 15.7812C12.3125 16.0156 12 16.2109 11.6875 16.3281L8.21094 17.4609C7.85938 17.5781 7.50781 17.5 7.27344 17.2266C7 16.9922 6.92188 16.6016 7.03906 16.2891L8.17188 12.8125C8.28906 12.5 8.48438 12.1875 8.71875 11.9531ZM9.5 5C10.1641 5 10.75 5.58594 10.75 6.25C10.75 6.95312 10.1641 7.5 9.5 7.5H5.75C5.04688 7.5 4.5 8.08594 4.5 8.75V18.75C4.5 19.4531 5.04688 20 5.75 20H15.75C16.4141 20 17 19.4531 17 18.75V15C17 14.3359 17.5469 13.75 18.25 13.75C18.9141 13.75 19.5 14.3359 19.5 15V18.75C19.5 20.8203 17.8203 22.5 15.75 22.5H5.75C3.64062 22.5 2 20.8203 2 18.75V8.75C2 6.67969 3.64062 5 5.75 5H9.5Z" fill="#363636"/>
</svg>
