<svg width="16" height="16" viewBox="0 0 16 16" fill="none" xmlns="http://www.w3.org/2000/svg">
<g clip-path="url(#clip0_878_5082)">
<path fill-rule="evenodd" clip-rule="evenodd" d="M3.19948 1.06641C2.91658 1.06641 2.64527 1.17879 2.44523 1.37883C2.24519 1.57886 2.13281 1.85018 2.13281 2.13307V13.8664C2.13281 14.1493 2.24519 14.4206 2.44523 14.6207C2.64527 14.8207 2.91658 14.9331 3.19948 14.9331H11.1995C11.3409 14.9331 11.4766 14.8769 11.5766 14.7769C11.6766 14.6768 11.7328 14.5412 11.7328 14.3997C11.7328 14.2583 11.6766 14.1226 11.5766 14.0226C11.4766 13.9226 11.3409 13.8664 11.1995 13.8664H3.19948V2.13307H11.1995C11.3409 2.13307 11.4766 2.07688 11.5766 1.97686C11.6766 1.87684 11.7328 1.74119 11.7328 1.59974C11.7328 1.45829 11.6766 1.32264 11.5766 1.22262C11.4766 1.1226 11.3409 1.06641 11.1995 1.06641H3.19948ZM13.4437 5.22214C13.3436 5.12199 13.2078 5.06573 13.0661 5.06573C12.9245 5.06573 12.7887 5.12199 12.6885 5.22214C12.5884 5.32229 12.5321 5.45811 12.5321 5.59974C12.5321 5.74137 12.5884 5.87719 12.6885 5.97734L14.1787 7.46641H6.93281C6.79136 7.46641 6.65571 7.5226 6.55569 7.62262C6.45567 7.72264 6.39948 7.85829 6.39948 7.99974C6.39948 8.14119 6.45567 8.27684 6.55569 8.37686C6.65571 8.47688 6.79136 8.53307 6.93281 8.53307H14.1787L12.6885 10.0221C12.5884 10.1223 12.5321 10.2581 12.5321 10.3997C12.5321 10.5414 12.5884 10.6772 12.6885 10.7773C12.7887 10.8775 12.9245 10.9337 13.0661 10.9337C13.2078 10.9337 13.3436 10.8775 13.4437 10.7773L15.8437 8.37734C15.8934 8.3278 15.9328 8.26894 15.9597 8.20415C15.9866 8.13935 16.0004 8.06989 16.0004 7.99974C16.0004 7.92959 15.9866 7.86012 15.9597 7.79533C15.9328 7.73054 15.8934 7.67168 15.8437 7.62214L13.4437 5.22214Z" fill="#1A1A1A"/>
</g>
<defs>
<clipPath id="clip0_878_5082">
<rect width="16" height="16" fill="white"/>
</clipPath>
</defs>
</svg>
